<?xml version="1.0" encoding="UTF-8" standalone="no"?>
<!DOCTYPE svg PUBLIC "-//W3C//DTD SVG 1.1//EN"
 "http://www.w3.org/Graphics/SVG/1.1/DTD/svg11.dtd">
<!-- Generated by graphviz version 2.38.0 (20140413.2041)
 -->
<!-- Title: %3 Pages: 1 -->
<svg width="447pt" height="116pt"
 viewBox="0.00 0.00 446.79 116.45" xmlns="http://www.w3.org/2000/svg" xmlns:xlink="http://www.w3.org/1999/xlink">
<g id="graph0" class="graph" transform="scale(1 1) rotate(0) translate(4 112.448)">
<title>%3</title>
<g id="node1" class="node"><title></title>
</g>
<!-- Q0 -->
<g id="node2" class="node"><title>Q0</title>
<ellipse fill="none" stroke="black" cx="118" cy="-18" rx="27" ry="18"/>
<text text-anchor="middle" x="118" y="-14.3" font-family="Times,serif" font-size="14.00">Q0</text>
</g>
<!-- &#45;&gt;Q0 -->
<g id="edge1" class="edge"><title>&#45;&gt;Q0</title>
<path fill="none" stroke="black" d="M54.2216,-18C62.5505,-18 71.9135,-18 80.8161,-18"/>
<polygon fill="black" stroke="black" points="80.9659,-21.5001 90.9659,-18 80.9658,-14.5001 80.9659,-21.5001"/>
</g>
<!-- Q1 -->
<g id="node3" class="node"><title>Q1</title>
<ellipse fill="none" stroke="black" cx="216.448" cy="-50" rx="21.4044" ry="21.4044"/>
<ellipse fill="none" stroke="black" cx="216.448" cy="-50" rx="25.3963" ry="25.3963"/>
<text text-anchor="middle" x="216.448" y="-46.3" font-family="Times,serif" font-size="14.00">Q1</text>
</g>
<!-- Q0&#45;&gt;Q1 -->
<g id="edge2" class="edge"><title>Q0&#45;&gt;Q1</title>
<path fill="none" stroke="black" d="M142.841,-25.9101C154.754,-29.8627 169.362,-34.7092 182.343,-39.0162"/>
<polygon fill="black" stroke="black" points="181.288,-42.3537 191.881,-42.1809 183.492,-35.7098 181.288,-42.3537"/>
<text text-anchor="middle" x="168" y="-38.8" font-family="Times,serif" font-size="14.00">A</text>
</g>
<!-- Q3 -->
<g id="node5" class="node"><title>Q3</title>
<ellipse fill="none" stroke="black" cx="411.792" cy="-18" rx="27" ry="18"/>
<text text-anchor="middle" x="411.792" y="-14.3" font-family="Times,serif" font-size="14.00">Q3</text>
</g>
<!-- Q0&#45;&gt;Q3 -->
<g id="edge3" class="edge"><title>Q0&#45;&gt;Q3</title>
<path fill="none" stroke="black" d="M144.991,-17.1039C158.678,-16.676 175.746,-16.2118 191,-16 256.679,-15.088 273.113,-15.088 338.792,-16 350.472,-16.1622 363.213,-16.4723 374.687,-16.8007"/>
<polygon fill="black" stroke="black" points="374.701,-20.3026 384.802,-17.1039 374.911,-13.3058 374.701,-20.3026"/>
<text text-anchor="middle" x="264.896" y="-18.8" font-family="Times,serif" font-size="14.00">B</text>
</g>
<!-- Q1&#45;&gt;Q1 -->
<g id="edge4" class="edge"><title>Q1&#45;&gt;Q1</title>
<path fill="none" stroke="black" d="M207.556,-74.1271C206.828,-84.5361 209.792,-93.4481 216.448,-93.4481 220.712,-93.4481 223.461,-89.7906 224.695,-84.4251"/>
<polygon fill="black" stroke="black" points="228.208,-84.3265 225.34,-74.1271 221.221,-83.8885 228.208,-84.3265"/>
<text text-anchor="middle" x="216.448" y="-97.2481" font-family="Times,serif" font-size="14.00">A</text>
</g>
<!-- Q2 -->
<g id="node4" class="node"><title>Q2</title>
<ellipse fill="none" stroke="black" cx="313.344" cy="-50" rx="21.4044" ry="21.4044"/>
<ellipse fill="none" stroke="black" cx="313.344" cy="-50" rx="25.3963" ry="25.3963"/>
<text text-anchor="middle" x="313.344" y="-46.3" font-family="Times,serif" font-size="14.00">Q2</text>
</g>
<!-- Q1&#45;&gt;Q2 -->
<g id="edge5" class="edge"><title>Q1&#45;&gt;Q2</title>
<path fill="none" stroke="black" d="M242.381,-50C253.06,-50 265.72,-50 277.316,-50"/>
<polygon fill="black" stroke="black" points="277.578,-53.5001 287.578,-50 277.578,-46.5001 277.578,-53.5001"/>
<text text-anchor="middle" x="264.896" y="-53.8" font-family="Times,serif" font-size="14.00">B</text>
</g>
<!-- Q2&#45;&gt;Q2 -->
<g id="edge6" class="edge"><title>Q2&#45;&gt;Q2</title>
<path fill="none" stroke="black" d="M304.452,-74.1271C303.724,-84.5361 306.688,-93.4481 313.344,-93.4481 317.608,-93.4481 320.357,-89.7906 321.591,-84.4251"/>
<polygon fill="black" stroke="black" points="325.104,-84.3265 322.237,-74.1271 318.118,-83.8885 325.104,-84.3265"/>
<text text-anchor="middle" x="313.344" y="-97.2481" font-family="Times,serif" font-size="14.00">A</text>
</g>
<!-- Q2&#45;&gt;Q3 -->
<g id="edge7" class="edge"><title>Q2&#45;&gt;Q3</title>
<path fill="none" stroke="black" d="M337.692,-42.2537C349.687,-38.2739 364.509,-33.356 377.665,-28.9912"/>
<polygon fill="black" stroke="black" points="378.937,-32.2569 387.326,-25.7859 376.732,-25.6131 378.937,-32.2569"/>
<text text-anchor="middle" x="361.792" y="-38.8" font-family="Times,serif" font-size="14.00">B</text>
</g>
<!-- Q3&#45;&gt;Q3 -->
<g id="edge8" class="edge"><title>Q3&#45;&gt;Q3</title>
<path fill="none" stroke="black" d="M402.932,-35.0373C401.124,-44.8579 404.078,-54 411.792,-54 416.614,-54 419.576,-50.4289 420.678,-45.3529"/>
<polygon fill="black" stroke="black" points="424.177,-45.0286 420.652,-35.0373 417.177,-45.0459 424.177,-45.0286"/>
<text text-anchor="middle" x="411.792" y="-57.8" font-family="Times,serif" font-size="14.00">A, B</text>
</g>
</g>
</svg>
